<mxfile host="Electron" modified="2024-04-27T18:58:16.451Z" agent="Mozilla/5.0 (Windows NT 10.0; Win64; x64) AppleWebKit/537.36 (KHTML, like Gecko) draw.io/24.2.5 Chrome/120.0.6099.109 Electron/28.1.0 Safari/537.36" etag="_9uPVmnSD8cl0is-lTpi" version="24.2.5" type="device">
  <diagram name="Page-1" id="nBAlf1rE5BvFw1AQi6tP">
    <mxGraphModel dx="2717" dy="1973" grid="1" gridSize="10" guides="1" tooltips="1" connect="1" arrows="1" fold="1" page="1" pageScale="1" pageWidth="850" pageHeight="1100" math="0" shadow="0">
      <root>
        <mxCell id="0" />
        <mxCell id="1" parent="0" />
        <mxCell id="uJxEqMMkXz4IsVKM8de3-12" style="rounded=0;orthogonalLoop=1;jettySize=auto;html=1;exitX=0;exitY=0;exitDx=0;exitDy=0;entryX=0.5;entryY=1;entryDx=0;entryDy=0;" parent="1" source="uJxEqMMkXz4IsVKM8de3-1" target="uJxEqMMkXz4IsVKM8de3-2" edge="1">
          <mxGeometry relative="1" as="geometry" />
        </mxCell>
        <mxCell id="uJxEqMMkXz4IsVKM8de3-13" style="rounded=0;orthogonalLoop=1;jettySize=auto;html=1;exitX=0.5;exitY=0;exitDx=0;exitDy=0;entryX=0;entryY=0.5;entryDx=0;entryDy=0;" parent="1" source="uJxEqMMkXz4IsVKM8de3-1" target="uJxEqMMkXz4IsVKM8de3-3" edge="1">
          <mxGeometry relative="1" as="geometry" />
        </mxCell>
        <mxCell id="uJxEqMMkXz4IsVKM8de3-14" style="rounded=0;orthogonalLoop=1;jettySize=auto;html=1;exitX=1;exitY=0;exitDx=0;exitDy=0;" parent="1" source="uJxEqMMkXz4IsVKM8de3-1" target="uJxEqMMkXz4IsVKM8de3-6" edge="1">
          <mxGeometry relative="1" as="geometry" />
        </mxCell>
        <mxCell id="uJxEqMMkXz4IsVKM8de3-15" style="rounded=0;orthogonalLoop=1;jettySize=auto;html=1;exitX=1;exitY=1;exitDx=0;exitDy=0;" parent="1" source="uJxEqMMkXz4IsVKM8de3-1" target="uJxEqMMkXz4IsVKM8de3-4" edge="1">
          <mxGeometry relative="1" as="geometry" />
        </mxCell>
        <mxCell id="uJxEqMMkXz4IsVKM8de3-16" style="rounded=0;orthogonalLoop=1;jettySize=auto;html=1;exitX=0.5;exitY=1;exitDx=0;exitDy=0;" parent="1" source="uJxEqMMkXz4IsVKM8de3-1" target="uJxEqMMkXz4IsVKM8de3-5" edge="1">
          <mxGeometry relative="1" as="geometry" />
        </mxCell>
        <mxCell id="uJxEqMMkXz4IsVKM8de3-31" style="rounded=0;orthogonalLoop=1;jettySize=auto;html=1;exitX=0;exitY=0.25;exitDx=0;exitDy=0;entryX=1;entryY=0.5;entryDx=0;entryDy=0;" parent="1" source="uJxEqMMkXz4IsVKM8de3-1" target="uJxEqMMkXz4IsVKM8de3-30" edge="1">
          <mxGeometry relative="1" as="geometry" />
        </mxCell>
        <mxCell id="uJxEqMMkXz4IsVKM8de3-1" value="USER" style="rounded=0;whiteSpace=wrap;html=1;" parent="1" vertex="1">
          <mxGeometry x="-410" y="120" width="120" height="60" as="geometry" />
        </mxCell>
        <mxCell id="uJxEqMMkXz4IsVKM8de3-2" value="&lt;u&gt;UserId&lt;/u&gt;" style="ellipse;whiteSpace=wrap;html=1;" parent="1" vertex="1">
          <mxGeometry x="-480" width="120" height="80" as="geometry" />
        </mxCell>
        <mxCell id="uJxEqMMkXz4IsVKM8de3-3" value="Name" style="ellipse;whiteSpace=wrap;html=1;" parent="1" vertex="1">
          <mxGeometry x="-270" width="120" height="80" as="geometry" />
        </mxCell>
        <mxCell id="uJxEqMMkXz4IsVKM8de3-4" value="Surname" style="ellipse;whiteSpace=wrap;html=1;" parent="1" vertex="1">
          <mxGeometry x="-240" y="160" width="120" height="80" as="geometry" />
        </mxCell>
        <mxCell id="uJxEqMMkXz4IsVKM8de3-5" value="Password" style="ellipse;whiteSpace=wrap;html=1;" parent="1" vertex="1">
          <mxGeometry x="-360" y="250" width="120" height="80" as="geometry" />
        </mxCell>
        <mxCell id="uJxEqMMkXz4IsVKM8de3-6" value="Email" style="ellipse;whiteSpace=wrap;html=1;" parent="1" vertex="1">
          <mxGeometry x="-120" y="70" width="120" height="80" as="geometry" />
        </mxCell>
        <mxCell id="uJxEqMMkXz4IsVKM8de3-7" value="DateOfBirth" style="ellipse;whiteSpace=wrap;html=1;" parent="1" vertex="1">
          <mxGeometry x="-540" y="230" width="120" height="80" as="geometry" />
        </mxCell>
        <mxCell id="uJxEqMMkXz4IsVKM8de3-8" value="UserType" style="ellipse;whiteSpace=wrap;html=1;" parent="1" vertex="1">
          <mxGeometry x="-610" y="100" width="120" height="80" as="geometry" />
        </mxCell>
        <mxCell id="uJxEqMMkXz4IsVKM8de3-11" style="rounded=0;orthogonalLoop=1;jettySize=auto;html=1;exitX=0;exitY=0.5;exitDx=0;exitDy=0;entryX=0.958;entryY=0.425;entryDx=0;entryDy=0;entryPerimeter=0;" parent="1" source="uJxEqMMkXz4IsVKM8de3-1" target="uJxEqMMkXz4IsVKM8de3-8" edge="1">
          <mxGeometry relative="1" as="geometry" />
        </mxCell>
        <mxCell id="uJxEqMMkXz4IsVKM8de3-17" style="rounded=0;orthogonalLoop=1;jettySize=auto;html=1;exitX=0;exitY=1;exitDx=0;exitDy=0;entryX=0.625;entryY=0.038;entryDx=0;entryDy=0;entryPerimeter=0;" parent="1" source="uJxEqMMkXz4IsVKM8de3-1" target="uJxEqMMkXz4IsVKM8de3-7" edge="1">
          <mxGeometry relative="1" as="geometry" />
        </mxCell>
        <mxCell id="uJxEqMMkXz4IsVKM8de3-22" style="edgeStyle=orthogonalEdgeStyle;rounded=0;orthogonalLoop=1;jettySize=auto;html=1;exitX=0.5;exitY=0;exitDx=0;exitDy=0;entryX=0.5;entryY=1;entryDx=0;entryDy=0;" parent="1" source="uJxEqMMkXz4IsVKM8de3-18" target="uJxEqMMkXz4IsVKM8de3-19" edge="1">
          <mxGeometry relative="1" as="geometry" />
        </mxCell>
        <mxCell id="uJxEqMMkXz4IsVKM8de3-18" value="ACCOUNT" style="rounded=0;whiteSpace=wrap;html=1;" parent="1" vertex="1">
          <mxGeometry x="250" y="130" width="120" height="60" as="geometry" />
        </mxCell>
        <mxCell id="uJxEqMMkXz4IsVKM8de3-19" value="&lt;u&gt;ProfileId&lt;/u&gt;" style="ellipse;whiteSpace=wrap;html=1;" parent="1" vertex="1">
          <mxGeometry x="250" y="10" width="120" height="80" as="geometry" />
        </mxCell>
        <mxCell id="uJxEqMMkXz4IsVKM8de3-20" value="UserId" style="ellipse;whiteSpace=wrap;html=1;" parent="1" vertex="1">
          <mxGeometry x="240" y="290" width="120" height="80" as="geometry" />
        </mxCell>
        <mxCell id="uJxEqMMkXz4IsVKM8de3-21" style="rounded=0;orthogonalLoop=1;jettySize=auto;html=1;exitX=0.417;exitY=0.95;exitDx=0;exitDy=0;entryX=0.5;entryY=0;entryDx=0;entryDy=0;exitPerimeter=0;" parent="1" source="uJxEqMMkXz4IsVKM8de3-18" target="uJxEqMMkXz4IsVKM8de3-20" edge="1">
          <mxGeometry relative="1" as="geometry" />
        </mxCell>
        <mxCell id="uJxEqMMkXz4IsVKM8de3-59" style="edgeStyle=orthogonalEdgeStyle;rounded=0;orthogonalLoop=1;jettySize=auto;html=1;exitX=0;exitY=0.5;exitDx=0;exitDy=0;" parent="1" source="uJxEqMMkXz4IsVKM8de3-23" target="uJxEqMMkXz4IsVKM8de3-52" edge="1">
          <mxGeometry relative="1" as="geometry" />
        </mxCell>
        <mxCell id="uJxEqMMkXz4IsVKM8de3-63" style="rounded=0;orthogonalLoop=1;jettySize=auto;html=1;exitX=1;exitY=1;exitDx=0;exitDy=0;entryX=0;entryY=0.5;entryDx=0;entryDy=0;" parent="1" source="uJxEqMMkXz4IsVKM8de3-23" target="uJxEqMMkXz4IsVKM8de3-57" edge="1">
          <mxGeometry relative="1" as="geometry" />
        </mxCell>
        <mxCell id="ga1WcqXfDNo0YRxiHGNj-14" style="rounded=0;orthogonalLoop=1;jettySize=auto;html=1;exitX=0.5;exitY=0;exitDx=0;exitDy=0;entryX=0.5;entryY=1;entryDx=0;entryDy=0;" parent="1" source="uJxEqMMkXz4IsVKM8de3-23" target="ga1WcqXfDNo0YRxiHGNj-13" edge="1">
          <mxGeometry relative="1" as="geometry" />
        </mxCell>
        <mxCell id="ga1WcqXfDNo0YRxiHGNj-39" style="rounded=0;orthogonalLoop=1;jettySize=auto;html=1;exitX=0;exitY=1;exitDx=0;exitDy=0;entryX=1;entryY=0;entryDx=0;entryDy=0;" parent="1" source="uJxEqMMkXz4IsVKM8de3-23" target="ga1WcqXfDNo0YRxiHGNj-38" edge="1">
          <mxGeometry relative="1" as="geometry" />
        </mxCell>
        <mxCell id="uJxEqMMkXz4IsVKM8de3-23" value="TOUR_PACKAGES" style="rounded=0;whiteSpace=wrap;html=1;" parent="1" vertex="1">
          <mxGeometry x="450" y="790" width="120" height="60" as="geometry" />
        </mxCell>
        <mxCell id="uJxEqMMkXz4IsVKM8de3-75" style="rounded=0;orthogonalLoop=1;jettySize=auto;html=1;exitX=0.25;exitY=1;exitDx=0;exitDy=0;" parent="1" source="uJxEqMMkXz4IsVKM8de3-24" target="uJxEqMMkXz4IsVKM8de3-70" edge="1">
          <mxGeometry relative="1" as="geometry" />
        </mxCell>
        <mxCell id="uJxEqMMkXz4IsVKM8de3-24" value="PAYMENT" style="rounded=0;whiteSpace=wrap;html=1;" parent="1" vertex="1">
          <mxGeometry x="-400" y="1180" width="120" height="60" as="geometry" />
        </mxCell>
        <mxCell id="uJxEqMMkXz4IsVKM8de3-42" style="rounded=0;orthogonalLoop=1;jettySize=auto;html=1;exitX=0;exitY=0;exitDx=0;exitDy=0;" parent="1" source="uJxEqMMkXz4IsVKM8de3-25" target="uJxEqMMkXz4IsVKM8de3-34" edge="1">
          <mxGeometry relative="1" as="geometry" />
        </mxCell>
        <mxCell id="uJxEqMMkXz4IsVKM8de3-44" style="rounded=0;orthogonalLoop=1;jettySize=auto;html=1;exitX=1;exitY=0.5;exitDx=0;exitDy=0;" parent="1" source="uJxEqMMkXz4IsVKM8de3-25" edge="1">
          <mxGeometry relative="1" as="geometry">
            <mxPoint x="1100.60303038032" y="165.65685424949334" as="targetPoint" />
          </mxGeometry>
        </mxCell>
        <mxCell id="uJxEqMMkXz4IsVKM8de3-46" style="rounded=0;orthogonalLoop=1;jettySize=auto;html=1;exitX=0.5;exitY=1;exitDx=0;exitDy=0;entryX=0.5;entryY=0;entryDx=0;entryDy=0;" parent="1" source="uJxEqMMkXz4IsVKM8de3-25" edge="1">
          <mxGeometry relative="1" as="geometry">
            <mxPoint x="860" y="270" as="targetPoint" />
          </mxGeometry>
        </mxCell>
        <mxCell id="uJxEqMMkXz4IsVKM8de3-48" style="rounded=0;orthogonalLoop=1;jettySize=auto;html=1;exitX=0;exitY=0.5;exitDx=0;exitDy=0;" parent="1" source="uJxEqMMkXz4IsVKM8de3-25" target="uJxEqMMkXz4IsVKM8de3-38" edge="1">
          <mxGeometry relative="1" as="geometry" />
        </mxCell>
        <mxCell id="Snv7-qyraj3ZiOCzRbyC-10" style="rounded=0;orthogonalLoop=1;jettySize=auto;html=1;exitX=0.75;exitY=0;exitDx=0;exitDy=0;entryX=0;entryY=1;entryDx=0;entryDy=0;" edge="1" parent="1" source="uJxEqMMkXz4IsVKM8de3-25" target="Snv7-qyraj3ZiOCzRbyC-9">
          <mxGeometry relative="1" as="geometry" />
        </mxCell>
        <mxCell id="uJxEqMMkXz4IsVKM8de3-25" value="RESERVATIONS" style="rounded=0;whiteSpace=wrap;html=1;" parent="1" vertex="1">
          <mxGeometry x="830" y="150" width="120" height="60" as="geometry" />
        </mxCell>
        <mxCell id="uJxEqMMkXz4IsVKM8de3-26" value="DESTINATION" style="rounded=0;whiteSpace=wrap;html=1;" parent="1" vertex="1">
          <mxGeometry x="-455" y="760" width="120" height="60" as="geometry" />
        </mxCell>
        <mxCell id="uJxEqMMkXz4IsVKM8de3-90" style="rounded=0;orthogonalLoop=1;jettySize=auto;html=1;exitX=0;exitY=0.5;exitDx=0;exitDy=0;entryX=1;entryY=0;entryDx=0;entryDy=0;" parent="1" source="uJxEqMMkXz4IsVKM8de3-27" target="uJxEqMMkXz4IsVKM8de3-87" edge="1">
          <mxGeometry relative="1" as="geometry" />
        </mxCell>
        <mxCell id="uJxEqMMkXz4IsVKM8de3-91" style="rounded=0;orthogonalLoop=1;jettySize=auto;html=1;entryX=0.5;entryY=0;entryDx=0;entryDy=0;exitX=0.5;exitY=1;exitDx=0;exitDy=0;" parent="1" source="uJxEqMMkXz4IsVKM8de3-27" target="uJxEqMMkXz4IsVKM8de3-88" edge="1">
          <mxGeometry relative="1" as="geometry">
            <mxPoint x="860" y="1420" as="sourcePoint" />
          </mxGeometry>
        </mxCell>
        <mxCell id="uJxEqMMkXz4IsVKM8de3-27" value="FAVORITES" style="rounded=0;whiteSpace=wrap;html=1;" parent="1" vertex="1">
          <mxGeometry x="510" y="1310" width="120" height="60" as="geometry" />
        </mxCell>
        <mxCell id="uJxEqMMkXz4IsVKM8de3-97" style="rounded=0;orthogonalLoop=1;jettySize=auto;html=1;exitX=0.5;exitY=0;exitDx=0;exitDy=0;entryX=0;entryY=0.5;entryDx=0;entryDy=0;" parent="1" source="uJxEqMMkXz4IsVKM8de3-28" edge="1">
          <mxGeometry relative="1" as="geometry">
            <mxPoint x="1347.04" y="1220" as="targetPoint" />
          </mxGeometry>
        </mxCell>
        <mxCell id="uJxEqMMkXz4IsVKM8de3-99" style="rounded=0;orthogonalLoop=1;jettySize=auto;html=1;exitX=0.5;exitY=1;exitDx=0;exitDy=0;entryX=1;entryY=0;entryDx=0;entryDy=0;" parent="1" source="uJxEqMMkXz4IsVKM8de3-28" target="uJxEqMMkXz4IsVKM8de3-95" edge="1">
          <mxGeometry relative="1" as="geometry" />
        </mxCell>
        <mxCell id="uJxEqMMkXz4IsVKM8de3-101" style="edgeStyle=orthogonalEdgeStyle;rounded=0;orthogonalLoop=1;jettySize=auto;html=1;exitX=0;exitY=0.5;exitDx=0;exitDy=0;entryX=1;entryY=0.5;entryDx=0;entryDy=0;" parent="1" source="uJxEqMMkXz4IsVKM8de3-28" edge="1">
          <mxGeometry relative="1" as="geometry">
            <mxPoint x="1127.04" y="1330" as="targetPoint" />
          </mxGeometry>
        </mxCell>
        <mxCell id="uJxEqMMkXz4IsVKM8de3-28" value="REVIEWS" style="rounded=0;whiteSpace=wrap;html=1;" parent="1" vertex="1">
          <mxGeometry x="1197.04" y="1300" width="120" height="60" as="geometry" />
        </mxCell>
        <mxCell id="uJxEqMMkXz4IsVKM8de3-30" value="Address" style="ellipse;whiteSpace=wrap;html=1;" parent="1" vertex="1">
          <mxGeometry x="-650" width="120" height="80" as="geometry" />
        </mxCell>
        <mxCell id="uJxEqMMkXz4IsVKM8de3-32" value="Contact" style="ellipse;whiteSpace=wrap;html=1;" parent="1" vertex="1">
          <mxGeometry x="-470" y="330" width="120" height="80" as="geometry" />
        </mxCell>
        <mxCell id="uJxEqMMkXz4IsVKM8de3-33" style="rounded=0;orthogonalLoop=1;jettySize=auto;html=1;exitX=0.25;exitY=1;exitDx=0;exitDy=0;entryX=0.558;entryY=0.075;entryDx=0;entryDy=0;entryPerimeter=0;" parent="1" source="uJxEqMMkXz4IsVKM8de3-1" target="uJxEqMMkXz4IsVKM8de3-32" edge="1">
          <mxGeometry relative="1" as="geometry" />
        </mxCell>
        <mxCell id="uJxEqMMkXz4IsVKM8de3-34" value="&lt;u&gt;ReservationId&lt;/u&gt;" style="ellipse;whiteSpace=wrap;html=1;" parent="1" vertex="1">
          <mxGeometry x="700" y="30" width="120" height="80" as="geometry" />
        </mxCell>
        <mxCell id="uJxEqMMkXz4IsVKM8de3-36" value="PaymentStatus" style="ellipse;whiteSpace=wrap;html=1;" parent="1" vertex="1">
          <mxGeometry x="610" y="240" width="120" height="80" as="geometry" />
        </mxCell>
        <mxCell id="uJxEqMMkXz4IsVKM8de3-37" value="DateOfReservation" style="ellipse;whiteSpace=wrap;html=1;" parent="1" vertex="1">
          <mxGeometry x="790" y="270" width="120" height="80" as="geometry" />
        </mxCell>
        <mxCell id="uJxEqMMkXz4IsVKM8de3-38" value="TotalPrice" style="ellipse;whiteSpace=wrap;html=1;" parent="1" vertex="1">
          <mxGeometry x="550" y="130" width="120" height="80" as="geometry" />
        </mxCell>
        <mxCell id="uJxEqMMkXz4IsVKM8de3-39" value="&lt;font color=&quot;#ff0000&quot;&gt;TotalTravelers&lt;/font&gt;" style="ellipse;whiteSpace=wrap;html=1;strokeColor=#FF0000;" parent="1" vertex="1">
          <mxGeometry x="980" y="230" width="120" height="80" as="geometry" />
        </mxCell>
        <mxCell id="uJxEqMMkXz4IsVKM8de3-40" value="PackageId" style="ellipse;whiteSpace=wrap;html=1;" parent="1" vertex="1">
          <mxGeometry x="1100" y="120" width="120" height="80" as="geometry" />
        </mxCell>
        <mxCell id="uJxEqMMkXz4IsVKM8de3-45" style="rounded=0;orthogonalLoop=1;jettySize=auto;html=1;exitX=1;exitY=1;exitDx=0;exitDy=0;entryX=0.267;entryY=0.125;entryDx=0;entryDy=0;entryPerimeter=0;" parent="1" source="uJxEqMMkXz4IsVKM8de3-25" target="uJxEqMMkXz4IsVKM8de3-39" edge="1">
          <mxGeometry relative="1" as="geometry" />
        </mxCell>
        <mxCell id="uJxEqMMkXz4IsVKM8de3-47" style="rounded=0;orthogonalLoop=1;jettySize=auto;html=1;exitX=0;exitY=1;exitDx=0;exitDy=0;entryX=0.917;entryY=0.063;entryDx=0;entryDy=0;entryPerimeter=0;" parent="1" source="uJxEqMMkXz4IsVKM8de3-25" target="uJxEqMMkXz4IsVKM8de3-36" edge="1">
          <mxGeometry relative="1" as="geometry" />
        </mxCell>
        <mxCell id="uJxEqMMkXz4IsVKM8de3-50" value="&lt;u&gt;PackageId&lt;/u&gt;" style="ellipse;whiteSpace=wrap;html=1;" parent="1" vertex="1">
          <mxGeometry x="320" y="660" width="120" height="80" as="geometry" />
        </mxCell>
        <mxCell id="uJxEqMMkXz4IsVKM8de3-52" value="Price" style="ellipse;whiteSpace=wrap;html=1;" parent="1" vertex="1">
          <mxGeometry x="200" y="780" width="120" height="80" as="geometry" />
        </mxCell>
        <mxCell id="uJxEqMMkXz4IsVKM8de3-54" value="Accomodation" style="ellipse;whiteSpace=wrap;html=1;" parent="1" vertex="1">
          <mxGeometry x="480" y="930" width="120" height="80" as="geometry" />
        </mxCell>
        <mxCell id="uJxEqMMkXz4IsVKM8de3-55" value="StartDate" style="ellipse;whiteSpace=wrap;html=1;" parent="1" vertex="1">
          <mxGeometry x="680" y="890" width="120" height="80" as="geometry" />
        </mxCell>
        <mxCell id="uJxEqMMkXz4IsVKM8de3-56" value="EndDate" style="ellipse;whiteSpace=wrap;html=1;" parent="1" vertex="1">
          <mxGeometry x="710" y="680" width="120" height="80" as="geometry" />
        </mxCell>
        <mxCell id="uJxEqMMkXz4IsVKM8de3-57" value="Availability" style="ellipse;whiteSpace=wrap;html=1;" parent="1" vertex="1">
          <mxGeometry x="850" y="790" width="120" height="80" as="geometry" />
        </mxCell>
        <mxCell id="uJxEqMMkXz4IsVKM8de3-60" style="rounded=0;orthogonalLoop=1;jettySize=auto;html=1;exitX=0;exitY=0;exitDx=0;exitDy=0;entryX=0.758;entryY=1;entryDx=0;entryDy=0;entryPerimeter=0;" parent="1" source="uJxEqMMkXz4IsVKM8de3-23" target="uJxEqMMkXz4IsVKM8de3-50" edge="1">
          <mxGeometry relative="1" as="geometry" />
        </mxCell>
        <mxCell id="uJxEqMMkXz4IsVKM8de3-62" style="rounded=0;orthogonalLoop=1;jettySize=auto;html=1;exitX=1;exitY=0.5;exitDx=0;exitDy=0;entryX=0.1;entryY=0.863;entryDx=0;entryDy=0;entryPerimeter=0;" parent="1" source="uJxEqMMkXz4IsVKM8de3-23" target="uJxEqMMkXz4IsVKM8de3-56" edge="1">
          <mxGeometry relative="1" as="geometry" />
        </mxCell>
        <mxCell id="uJxEqMMkXz4IsVKM8de3-64" style="rounded=0;orthogonalLoop=1;jettySize=auto;html=1;exitX=0.75;exitY=1;exitDx=0;exitDy=0;entryX=-0.008;entryY=0.25;entryDx=0;entryDy=0;entryPerimeter=0;" parent="1" source="uJxEqMMkXz4IsVKM8de3-23" target="uJxEqMMkXz4IsVKM8de3-55" edge="1">
          <mxGeometry relative="1" as="geometry" />
        </mxCell>
        <mxCell id="uJxEqMMkXz4IsVKM8de3-65" style="rounded=0;orthogonalLoop=1;jettySize=auto;html=1;exitX=0.5;exitY=1;exitDx=0;exitDy=0;entryX=0.267;entryY=0.063;entryDx=0;entryDy=0;entryPerimeter=0;" parent="1" source="uJxEqMMkXz4IsVKM8de3-23" target="uJxEqMMkXz4IsVKM8de3-54" edge="1">
          <mxGeometry relative="1" as="geometry" />
        </mxCell>
        <mxCell id="uJxEqMMkXz4IsVKM8de3-67" value="&lt;u&gt;PaymentId&lt;/u&gt;" style="ellipse;whiteSpace=wrap;html=1;" parent="1" vertex="1">
          <mxGeometry x="-600" y="1080" width="120" height="80" as="geometry" />
        </mxCell>
        <mxCell id="uJxEqMMkXz4IsVKM8de3-68" style="rounded=0;orthogonalLoop=1;jettySize=auto;html=1;exitX=0;exitY=0;exitDx=0;exitDy=0;entryX=0.908;entryY=0.788;entryDx=0;entryDy=0;entryPerimeter=0;" parent="1" source="uJxEqMMkXz4IsVKM8de3-24" target="uJxEqMMkXz4IsVKM8de3-67" edge="1">
          <mxGeometry relative="1" as="geometry" />
        </mxCell>
        <mxCell id="uJxEqMMkXz4IsVKM8de3-69" value="TransactionDate" style="ellipse;whiteSpace=wrap;html=1;" parent="1" vertex="1">
          <mxGeometry x="-610" y="1230" width="120" height="80" as="geometry" />
        </mxCell>
        <mxCell id="uJxEqMMkXz4IsVKM8de3-70" value="ReservationId" style="ellipse;whiteSpace=wrap;html=1;" parent="1" vertex="1">
          <mxGeometry x="-510" y="1350" width="120" height="80" as="geometry" />
        </mxCell>
        <mxCell id="uJxEqMMkXz4IsVKM8de3-71" value="Cost" style="ellipse;whiteSpace=wrap;html=1;" parent="1" vertex="1">
          <mxGeometry x="-340" y="1360" width="120" height="80" as="geometry" />
        </mxCell>
        <mxCell id="uJxEqMMkXz4IsVKM8de3-72" value="TransactionStatus" style="ellipse;whiteSpace=wrap;html=1;" parent="1" vertex="1">
          <mxGeometry x="-250" y="1070" width="120" height="80" as="geometry" />
        </mxCell>
        <mxCell id="uJxEqMMkXz4IsVKM8de3-73" value="PaymentMethod" style="ellipse;whiteSpace=wrap;html=1;" parent="1" vertex="1">
          <mxGeometry x="-230" y="1240" width="120" height="80" as="geometry" />
        </mxCell>
        <mxCell id="uJxEqMMkXz4IsVKM8de3-74" style="rounded=0;orthogonalLoop=1;jettySize=auto;html=1;exitX=0;exitY=0.5;exitDx=0;exitDy=0;entryX=0.925;entryY=0.238;entryDx=0;entryDy=0;entryPerimeter=0;" parent="1" source="uJxEqMMkXz4IsVKM8de3-24" target="uJxEqMMkXz4IsVKM8de3-69" edge="1">
          <mxGeometry relative="1" as="geometry" />
        </mxCell>
        <mxCell id="uJxEqMMkXz4IsVKM8de3-76" style="rounded=0;orthogonalLoop=1;jettySize=auto;html=1;exitX=0.5;exitY=1;exitDx=0;exitDy=0;entryX=0.358;entryY=0.038;entryDx=0;entryDy=0;entryPerimeter=0;" parent="1" source="uJxEqMMkXz4IsVKM8de3-24" target="uJxEqMMkXz4IsVKM8de3-71" edge="1">
          <mxGeometry relative="1" as="geometry" />
        </mxCell>
        <mxCell id="uJxEqMMkXz4IsVKM8de3-77" style="rounded=0;orthogonalLoop=1;jettySize=auto;html=1;exitX=1;exitY=1;exitDx=0;exitDy=0;entryX=0.067;entryY=0.3;entryDx=0;entryDy=0;entryPerimeter=0;" parent="1" source="uJxEqMMkXz4IsVKM8de3-24" target="uJxEqMMkXz4IsVKM8de3-73" edge="1">
          <mxGeometry relative="1" as="geometry" />
        </mxCell>
        <mxCell id="uJxEqMMkXz4IsVKM8de3-78" style="rounded=0;orthogonalLoop=1;jettySize=auto;html=1;exitX=1;exitY=0;exitDx=0;exitDy=0;entryX=0.058;entryY=0.9;entryDx=0;entryDy=0;entryPerimeter=0;" parent="1" source="uJxEqMMkXz4IsVKM8de3-24" target="uJxEqMMkXz4IsVKM8de3-72" edge="1">
          <mxGeometry relative="1" as="geometry" />
        </mxCell>
        <mxCell id="uJxEqMMkXz4IsVKM8de3-86" value="&lt;u&gt;FavoriteItemId&lt;/u&gt;" style="ellipse;whiteSpace=wrap;html=1;" parent="1" vertex="1">
          <mxGeometry x="430" y="1180" width="120" height="80" as="geometry" />
        </mxCell>
        <mxCell id="uJxEqMMkXz4IsVKM8de3-87" value="UserId" style="ellipse;whiteSpace=wrap;html=1;" parent="1" vertex="1">
          <mxGeometry x="320" y="1390" width="120" height="80" as="geometry" />
        </mxCell>
        <mxCell id="uJxEqMMkXz4IsVKM8de3-88" value="PackageId" style="ellipse;whiteSpace=wrap;html=1;" parent="1" vertex="1">
          <mxGeometry x="510" y="1450" width="120" height="80" as="geometry" />
        </mxCell>
        <mxCell id="uJxEqMMkXz4IsVKM8de3-89" style="rounded=0;orthogonalLoop=1;jettySize=auto;html=1;exitX=0;exitY=0;exitDx=0;exitDy=0;entryX=0.575;entryY=0.963;entryDx=0;entryDy=0;entryPerimeter=0;" parent="1" source="uJxEqMMkXz4IsVKM8de3-27" target="uJxEqMMkXz4IsVKM8de3-86" edge="1">
          <mxGeometry relative="1" as="geometry" />
        </mxCell>
        <mxCell id="uJxEqMMkXz4IsVKM8de3-92" value="&lt;u&gt;REVIEW_ID&lt;/u&gt;" style="ellipse;whiteSpace=wrap;html=1;" parent="1" vertex="1">
          <mxGeometry x="1090" y="1180" width="120" height="80" as="geometry" />
        </mxCell>
        <mxCell id="uJxEqMMkXz4IsVKM8de3-93" value="USER_ID" style="ellipse;whiteSpace=wrap;html=1;" parent="1" vertex="1">
          <mxGeometry x="1350" y="1180" width="120" height="80" as="geometry" />
        </mxCell>
        <mxCell id="uJxEqMMkXz4IsVKM8de3-94" value="COMMENT" style="ellipse;whiteSpace=wrap;html=1;" parent="1" vertex="1">
          <mxGeometry x="1390" y="1410" width="120" height="80" as="geometry" />
        </mxCell>
        <mxCell id="uJxEqMMkXz4IsVKM8de3-95" value="RATING" style="ellipse;whiteSpace=wrap;html=1;" parent="1" vertex="1">
          <mxGeometry x="1107.04" y="1410" width="120" height="80" as="geometry" />
        </mxCell>
        <mxCell id="uJxEqMMkXz4IsVKM8de3-96" style="rounded=0;orthogonalLoop=1;jettySize=auto;html=1;exitX=0;exitY=0;exitDx=0;exitDy=0;entryX=0.625;entryY=1.013;entryDx=0;entryDy=0;entryPerimeter=0;" parent="1" source="uJxEqMMkXz4IsVKM8de3-28" edge="1">
          <mxGeometry relative="1" as="geometry">
            <mxPoint x="1162.04" y="1261.04" as="targetPoint" />
          </mxGeometry>
        </mxCell>
        <mxCell id="uJxEqMMkXz4IsVKM8de3-98" style="rounded=0;orthogonalLoop=1;jettySize=auto;html=1;exitX=1;exitY=0.5;exitDx=0;exitDy=0;entryX=0.358;entryY=0.025;entryDx=0;entryDy=0;entryPerimeter=0;" parent="1" source="uJxEqMMkXz4IsVKM8de3-28" edge="1">
          <mxGeometry relative="1" as="geometry">
            <mxPoint x="1430" y="1412" as="targetPoint" />
          </mxGeometry>
        </mxCell>
        <mxCell id="uJxEqMMkXz4IsVKM8de3-100" value="PACKAGE_ID" style="ellipse;whiteSpace=wrap;html=1;" parent="1" vertex="1">
          <mxGeometry x="1010" y="1290" width="120" height="80" as="geometry" />
        </mxCell>
        <mxCell id="ga1WcqXfDNo0YRxiHGNj-1" value="&lt;u&gt;DestinationId&lt;/u&gt;" style="ellipse;whiteSpace=wrap;html=1;" parent="1" vertex="1">
          <mxGeometry x="-635" y="670" width="120" height="80" as="geometry" />
        </mxCell>
        <mxCell id="ga1WcqXfDNo0YRxiHGNj-2" value="Location" style="ellipse;whiteSpace=wrap;html=1;" parent="1" vertex="1">
          <mxGeometry x="-435" y="610" width="120" height="80" as="geometry" />
        </mxCell>
        <mxCell id="ga1WcqXfDNo0YRxiHGNj-3" value="Image" style="ellipse;whiteSpace=wrap;html=1;" parent="1" vertex="1">
          <mxGeometry x="-715" y="820" width="120" height="80" as="geometry" />
        </mxCell>
        <mxCell id="ga1WcqXfDNo0YRxiHGNj-4" value="DestinationName" style="ellipse;whiteSpace=wrap;html=1;" parent="1" vertex="1">
          <mxGeometry x="-485" y="880" width="120" height="80" as="geometry" />
        </mxCell>
        <mxCell id="ga1WcqXfDNo0YRxiHGNj-7" style="rounded=0;orthogonalLoop=1;jettySize=auto;html=1;exitX=0;exitY=0;exitDx=0;exitDy=0;entryX=0.975;entryY=0.75;entryDx=0;entryDy=0;entryPerimeter=0;" parent="1" source="uJxEqMMkXz4IsVKM8de3-26" target="ga1WcqXfDNo0YRxiHGNj-1" edge="1">
          <mxGeometry relative="1" as="geometry" />
        </mxCell>
        <mxCell id="ga1WcqXfDNo0YRxiHGNj-8" style="rounded=0;orthogonalLoop=1;jettySize=auto;html=1;exitX=0.5;exitY=0;exitDx=0;exitDy=0;entryX=0.358;entryY=1.013;entryDx=0;entryDy=0;entryPerimeter=0;" parent="1" source="uJxEqMMkXz4IsVKM8de3-26" target="ga1WcqXfDNo0YRxiHGNj-2" edge="1">
          <mxGeometry relative="1" as="geometry" />
        </mxCell>
        <mxCell id="ga1WcqXfDNo0YRxiHGNj-11" style="rounded=0;orthogonalLoop=1;jettySize=auto;html=1;exitX=0.5;exitY=1;exitDx=0;exitDy=0;entryX=0.767;entryY=0.163;entryDx=0;entryDy=0;entryPerimeter=0;" parent="1" source="uJxEqMMkXz4IsVKM8de3-26" target="ga1WcqXfDNo0YRxiHGNj-4" edge="1">
          <mxGeometry relative="1" as="geometry" />
        </mxCell>
        <mxCell id="ga1WcqXfDNo0YRxiHGNj-12" style="rounded=0;orthogonalLoop=1;jettySize=auto;html=1;exitX=0;exitY=0.5;exitDx=0;exitDy=0;entryX=0.95;entryY=0.3;entryDx=0;entryDy=0;entryPerimeter=0;" parent="1" source="uJxEqMMkXz4IsVKM8de3-26" target="ga1WcqXfDNo0YRxiHGNj-3" edge="1">
          <mxGeometry relative="1" as="geometry" />
        </mxCell>
        <mxCell id="ga1WcqXfDNo0YRxiHGNj-13" value="DestinationId" style="ellipse;whiteSpace=wrap;html=1;" parent="1" vertex="1">
          <mxGeometry x="520" y="600" width="120" height="80" as="geometry" />
        </mxCell>
        <mxCell id="ga1WcqXfDNo0YRxiHGNj-15" value="" style="endArrow=none;dashed=1;html=1;dashPattern=1 3;strokeWidth=2;rounded=0;" parent="1" edge="1">
          <mxGeometry width="50" height="50" relative="1" as="geometry">
            <mxPoint x="40" y="490" as="sourcePoint" />
            <mxPoint x="40" as="targetPoint" />
          </mxGeometry>
        </mxCell>
        <mxCell id="ga1WcqXfDNo0YRxiHGNj-16" value="" style="endArrow=none;dashed=1;html=1;dashPattern=1 3;strokeWidth=2;rounded=0;" parent="1" edge="1">
          <mxGeometry width="50" height="50" relative="1" as="geometry">
            <mxPoint x="510" y="500" as="sourcePoint" />
            <mxPoint x="510" y="10" as="targetPoint" />
          </mxGeometry>
        </mxCell>
        <mxCell id="ga1WcqXfDNo0YRxiHGNj-17" value="" style="endArrow=none;dashed=1;html=1;dashPattern=1 3;strokeWidth=2;rounded=0;" parent="1" edge="1">
          <mxGeometry width="50" height="50" relative="1" as="geometry">
            <mxPoint x="-670" y="560" as="sourcePoint" />
            <mxPoint x="80" y="560" as="targetPoint" />
          </mxGeometry>
        </mxCell>
        <mxCell id="ga1WcqXfDNo0YRxiHGNj-18" value="" style="endArrow=none;dashed=1;html=1;dashPattern=1 3;strokeWidth=2;rounded=0;" parent="1" edge="1">
          <mxGeometry width="50" height="50" relative="1" as="geometry">
            <mxPoint x="120" y="1040" as="sourcePoint" />
            <mxPoint x="120" y="550" as="targetPoint" />
          </mxGeometry>
        </mxCell>
        <mxCell id="ga1WcqXfDNo0YRxiHGNj-19" value="" style="endArrow=none;dashed=1;html=1;dashPattern=1 3;strokeWidth=2;rounded=0;" parent="1" edge="1">
          <mxGeometry width="50" height="50" relative="1" as="geometry">
            <mxPoint x="1020" y="1040" as="sourcePoint" />
            <mxPoint x="1020" y="550" as="targetPoint" />
          </mxGeometry>
        </mxCell>
        <mxCell id="ga1WcqXfDNo0YRxiHGNj-20" style="rounded=0;orthogonalLoop=1;jettySize=auto;html=1;exitX=0.5;exitY=0;exitDx=0;exitDy=0;entryX=0;entryY=0.5;entryDx=0;entryDy=0;" parent="1" source="ga1WcqXfDNo0YRxiHGNj-23" edge="1">
          <mxGeometry relative="1" as="geometry">
            <mxPoint x="1347.04" y="1220" as="targetPoint" />
          </mxGeometry>
        </mxCell>
        <mxCell id="ga1WcqXfDNo0YRxiHGNj-21" style="rounded=0;orthogonalLoop=1;jettySize=auto;html=1;exitX=0.5;exitY=1;exitDx=0;exitDy=0;entryX=1;entryY=0;entryDx=0;entryDy=0;" parent="1" source="ga1WcqXfDNo0YRxiHGNj-23" target="ga1WcqXfDNo0YRxiHGNj-27" edge="1">
          <mxGeometry relative="1" as="geometry" />
        </mxCell>
        <mxCell id="ga1WcqXfDNo0YRxiHGNj-22" style="edgeStyle=orthogonalEdgeStyle;rounded=0;orthogonalLoop=1;jettySize=auto;html=1;exitX=0;exitY=0.5;exitDx=0;exitDy=0;entryX=1;entryY=0.5;entryDx=0;entryDy=0;" parent="1" source="ga1WcqXfDNo0YRxiHGNj-23" edge="1">
          <mxGeometry relative="1" as="geometry">
            <mxPoint x="1127.04" y="1330" as="targetPoint" />
          </mxGeometry>
        </mxCell>
        <mxCell id="Snv7-qyraj3ZiOCzRbyC-5" style="rounded=0;orthogonalLoop=1;jettySize=auto;html=1;exitX=1;exitY=0.5;exitDx=0;exitDy=0;entryX=0;entryY=0.5;entryDx=0;entryDy=0;" edge="1" parent="1" source="ga1WcqXfDNo0YRxiHGNj-23" target="Snv7-qyraj3ZiOCzRbyC-4">
          <mxGeometry relative="1" as="geometry" />
        </mxCell>
        <mxCell id="ga1WcqXfDNo0YRxiHGNj-23" value="REVIEWS" style="rounded=0;whiteSpace=wrap;html=1;" parent="1" vertex="1">
          <mxGeometry x="1197.04" y="1300" width="120" height="60" as="geometry" />
        </mxCell>
        <mxCell id="ga1WcqXfDNo0YRxiHGNj-24" value="&lt;u&gt;ReviewId&lt;/u&gt;" style="ellipse;whiteSpace=wrap;html=1;" parent="1" vertex="1">
          <mxGeometry x="1090" y="1180" width="120" height="80" as="geometry" />
        </mxCell>
        <mxCell id="ga1WcqXfDNo0YRxiHGNj-25" value="UserId" style="ellipse;whiteSpace=wrap;html=1;" parent="1" vertex="1">
          <mxGeometry x="1350" y="1180" width="120" height="80" as="geometry" />
        </mxCell>
        <mxCell id="ga1WcqXfDNo0YRxiHGNj-26" value="Comment" style="ellipse;whiteSpace=wrap;html=1;" parent="1" vertex="1">
          <mxGeometry x="1390" y="1410" width="120" height="80" as="geometry" />
        </mxCell>
        <mxCell id="ga1WcqXfDNo0YRxiHGNj-27" value="Rating" style="ellipse;whiteSpace=wrap;html=1;" parent="1" vertex="1">
          <mxGeometry x="1107.04" y="1410" width="120" height="80" as="geometry" />
        </mxCell>
        <mxCell id="ga1WcqXfDNo0YRxiHGNj-28" style="rounded=0;orthogonalLoop=1;jettySize=auto;html=1;exitX=0;exitY=0;exitDx=0;exitDy=0;entryX=0.625;entryY=1.013;entryDx=0;entryDy=0;entryPerimeter=0;" parent="1" source="ga1WcqXfDNo0YRxiHGNj-23" edge="1">
          <mxGeometry relative="1" as="geometry">
            <mxPoint x="1162.04" y="1261.04" as="targetPoint" />
          </mxGeometry>
        </mxCell>
        <mxCell id="ga1WcqXfDNo0YRxiHGNj-29" style="rounded=0;orthogonalLoop=1;jettySize=auto;html=1;exitX=1;exitY=0.5;exitDx=0;exitDy=0;entryX=0.358;entryY=0.025;entryDx=0;entryDy=0;entryPerimeter=0;" parent="1" source="ga1WcqXfDNo0YRxiHGNj-23" edge="1">
          <mxGeometry relative="1" as="geometry">
            <mxPoint x="1430" y="1412" as="targetPoint" />
          </mxGeometry>
        </mxCell>
        <mxCell id="ga1WcqXfDNo0YRxiHGNj-30" value="PackageId" style="ellipse;whiteSpace=wrap;html=1;" parent="1" vertex="1">
          <mxGeometry x="1010" y="1290" width="120" height="80" as="geometry" />
        </mxCell>
        <mxCell id="ga1WcqXfDNo0YRxiHGNj-31" value="FAVORITES" style="rounded=0;whiteSpace=wrap;html=1;" parent="1" vertex="1">
          <mxGeometry x="510" y="1310" width="120" height="60" as="geometry" />
        </mxCell>
        <mxCell id="ga1WcqXfDNo0YRxiHGNj-32" value="" style="endArrow=none;dashed=1;html=1;dashPattern=1 3;strokeWidth=2;rounded=0;" parent="1" edge="1">
          <mxGeometry width="50" height="50" relative="1" as="geometry">
            <mxPoint x="120" y="1560" as="sourcePoint" />
            <mxPoint x="120" y="1070" as="targetPoint" />
          </mxGeometry>
        </mxCell>
        <mxCell id="ga1WcqXfDNo0YRxiHGNj-33" value="" style="endArrow=none;dashed=1;html=1;dashPattern=1 3;strokeWidth=2;rounded=0;" parent="1" edge="1">
          <mxGeometry width="50" height="50" relative="1" as="geometry">
            <mxPoint x="880" y="1575" as="sourcePoint" />
            <mxPoint x="880" y="1085" as="targetPoint" />
          </mxGeometry>
        </mxCell>
        <mxCell id="ga1WcqXfDNo0YRxiHGNj-34" value="" style="endArrow=none;dashed=1;html=1;dashPattern=1 3;strokeWidth=2;rounded=0;" parent="1" edge="1">
          <mxGeometry width="50" height="50" relative="1" as="geometry">
            <mxPoint x="140" y="560" as="sourcePoint" />
            <mxPoint x="990" y="560" as="targetPoint" />
          </mxGeometry>
        </mxCell>
        <mxCell id="ga1WcqXfDNo0YRxiHGNj-35" value="" style="endArrow=none;dashed=1;html=1;dashPattern=1 3;strokeWidth=2;rounded=0;" parent="1" edge="1">
          <mxGeometry width="50" height="50" relative="1" as="geometry">
            <mxPoint x="-690" y="1040" as="sourcePoint" />
            <mxPoint x="70" y="1030" as="targetPoint" />
          </mxGeometry>
        </mxCell>
        <mxCell id="ga1WcqXfDNo0YRxiHGNj-36" value="" style="endArrow=none;dashed=1;html=1;dashPattern=1 3;strokeWidth=2;rounded=0;" parent="1" edge="1">
          <mxGeometry width="50" height="50" relative="1" as="geometry">
            <mxPoint x="120" y="1030" as="sourcePoint" />
            <mxPoint x="1020" y="1030" as="targetPoint" />
          </mxGeometry>
        </mxCell>
        <mxCell id="ga1WcqXfDNo0YRxiHGNj-37" value="" style="endArrow=none;dashed=1;html=1;dashPattern=1 3;strokeWidth=2;rounded=0;" parent="1" edge="1">
          <mxGeometry width="50" height="50" relative="1" as="geometry">
            <mxPoint x="990" y="1100" as="sourcePoint" />
            <mxPoint x="1750" y="1105" as="targetPoint" />
          </mxGeometry>
        </mxCell>
        <mxCell id="ga1WcqXfDNo0YRxiHGNj-38" value="Description" style="ellipse;whiteSpace=wrap;html=1;" parent="1" vertex="1">
          <mxGeometry x="270" y="900" width="120" height="80" as="geometry" />
        </mxCell>
        <mxCell id="fkfLH0ix_5CJs-zv6ElO-3" value="" style="edgeStyle=orthogonalEdgeStyle;rounded=0;orthogonalLoop=1;jettySize=auto;html=1;" parent="1" source="fkfLH0ix_5CJs-zv6ElO-1" target="fkfLH0ix_5CJs-zv6ElO-2" edge="1">
          <mxGeometry relative="1" as="geometry" />
        </mxCell>
        <mxCell id="fkfLH0ix_5CJs-zv6ElO-7" value="1,1" style="edgeLabel;html=1;align=center;verticalAlign=middle;resizable=0;points=[];" parent="fkfLH0ix_5CJs-zv6ElO-3" vertex="1" connectable="0">
          <mxGeometry x="-0.14" y="-1" relative="1" as="geometry">
            <mxPoint as="offset" />
          </mxGeometry>
        </mxCell>
        <mxCell id="fkfLH0ix_5CJs-zv6ElO-1" value="USER" style="rounded=0;whiteSpace=wrap;html=1;" parent="1" vertex="1">
          <mxGeometry x="-730" y="1530" width="120" height="60" as="geometry" />
        </mxCell>
        <mxCell id="fkfLH0ix_5CJs-zv6ElO-5" value="" style="edgeStyle=orthogonalEdgeStyle;rounded=0;orthogonalLoop=1;jettySize=auto;html=1;" parent="1" source="fkfLH0ix_5CJs-zv6ElO-2" target="fkfLH0ix_5CJs-zv6ElO-4" edge="1">
          <mxGeometry relative="1" as="geometry" />
        </mxCell>
        <mxCell id="fkfLH0ix_5CJs-zv6ElO-6" value="1,N" style="edgeLabel;html=1;align=center;verticalAlign=middle;resizable=0;points=[];" parent="fkfLH0ix_5CJs-zv6ElO-5" vertex="1" connectable="0">
          <mxGeometry x="-0.0667" y="-1" relative="1" as="geometry">
            <mxPoint as="offset" />
          </mxGeometry>
        </mxCell>
        <mxCell id="fkfLH0ix_5CJs-zv6ElO-2" value="creates" style="rhombus;whiteSpace=wrap;html=1;rounded=0;" parent="1" vertex="1">
          <mxGeometry x="-495" y="1520" width="80" height="80" as="geometry" />
        </mxCell>
        <mxCell id="fkfLH0ix_5CJs-zv6ElO-4" value="ACCOUNT" style="whiteSpace=wrap;html=1;rounded=0;" parent="1" vertex="1">
          <mxGeometry x="-315" y="1530" width="120" height="60" as="geometry" />
        </mxCell>
        <mxCell id="fkfLH0ix_5CJs-zv6ElO-10" value="" style="edgeStyle=orthogonalEdgeStyle;rounded=0;orthogonalLoop=1;jettySize=auto;html=1;" parent="1" source="fkfLH0ix_5CJs-zv6ElO-8" target="fkfLH0ix_5CJs-zv6ElO-9" edge="1">
          <mxGeometry relative="1" as="geometry" />
        </mxCell>
        <mxCell id="fkfLH0ix_5CJs-zv6ElO-25" value="1,N" style="edgeLabel;html=1;align=center;verticalAlign=middle;resizable=0;points=[];" parent="fkfLH0ix_5CJs-zv6ElO-10" vertex="1" connectable="0">
          <mxGeometry x="-0.04" y="1" relative="1" as="geometry">
            <mxPoint as="offset" />
          </mxGeometry>
        </mxCell>
        <mxCell id="fkfLH0ix_5CJs-zv6ElO-8" value="USER" style="rounded=0;whiteSpace=wrap;html=1;" parent="1" vertex="1">
          <mxGeometry x="-730" y="1650" width="120" height="60" as="geometry" />
        </mxCell>
        <mxCell id="fkfLH0ix_5CJs-zv6ElO-12" value="" style="edgeStyle=orthogonalEdgeStyle;rounded=0;orthogonalLoop=1;jettySize=auto;html=1;" parent="1" source="fkfLH0ix_5CJs-zv6ElO-9" target="fkfLH0ix_5CJs-zv6ElO-11" edge="1">
          <mxGeometry relative="1" as="geometry" />
        </mxCell>
        <mxCell id="fkfLH0ix_5CJs-zv6ElO-24" value="1,1" style="edgeLabel;html=1;align=center;verticalAlign=middle;resizable=0;points=[];" parent="fkfLH0ix_5CJs-zv6ElO-12" vertex="1" connectable="0">
          <mxGeometry x="-0.4667" y="-1" relative="1" as="geometry">
            <mxPoint as="offset" />
          </mxGeometry>
        </mxCell>
        <mxCell id="Snv7-qyraj3ZiOCzRbyC-3" value=",N" style="edgeLabel;html=1;align=center;verticalAlign=middle;resizable=0;points=[];" vertex="1" connectable="0" parent="fkfLH0ix_5CJs-zv6ElO-12">
          <mxGeometry x="-0.3952" y="-2" relative="1" as="geometry">
            <mxPoint as="offset" />
          </mxGeometry>
        </mxCell>
        <mxCell id="fkfLH0ix_5CJs-zv6ElO-9" value="writes" style="rhombus;whiteSpace=wrap;html=1;rounded=0;" parent="1" vertex="1">
          <mxGeometry x="-495" y="1640" width="80" height="80" as="geometry" />
        </mxCell>
        <mxCell id="fkfLH0ix_5CJs-zv6ElO-11" value="REVIEWS&amp;nbsp;" style="whiteSpace=wrap;html=1;rounded=0;" parent="1" vertex="1">
          <mxGeometry x="-315" y="1650" width="120" height="60" as="geometry" />
        </mxCell>
        <mxCell id="fkfLH0ix_5CJs-zv6ElO-17" value="" style="edgeStyle=orthogonalEdgeStyle;rounded=0;orthogonalLoop=1;jettySize=auto;html=1;" parent="1" source="fkfLH0ix_5CJs-zv6ElO-13" target="fkfLH0ix_5CJs-zv6ElO-16" edge="1">
          <mxGeometry relative="1" as="geometry" />
        </mxCell>
        <mxCell id="fkfLH0ix_5CJs-zv6ElO-28" value="1,N" style="edgeLabel;html=1;align=center;verticalAlign=middle;resizable=0;points=[];" parent="fkfLH0ix_5CJs-zv6ElO-17" vertex="1" connectable="0">
          <mxGeometry x="-0.28" y="-1" relative="1" as="geometry">
            <mxPoint as="offset" />
          </mxGeometry>
        </mxCell>
        <mxCell id="fkfLH0ix_5CJs-zv6ElO-13" value="USER" style="rounded=0;whiteSpace=wrap;html=1;" parent="1" vertex="1">
          <mxGeometry x="-730" y="1760" width="120" height="60" as="geometry" />
        </mxCell>
        <mxCell id="fkfLH0ix_5CJs-zv6ElO-21" value="" style="edgeStyle=orthogonalEdgeStyle;rounded=0;orthogonalLoop=1;jettySize=auto;html=1;" parent="1" source="fkfLH0ix_5CJs-zv6ElO-14" target="fkfLH0ix_5CJs-zv6ElO-20" edge="1">
          <mxGeometry relative="1" as="geometry" />
        </mxCell>
        <mxCell id="fkfLH0ix_5CJs-zv6ElO-27" value="1,N" style="edgeLabel;html=1;align=center;verticalAlign=middle;resizable=0;points=[];" parent="fkfLH0ix_5CJs-zv6ElO-21" vertex="1" connectable="0">
          <mxGeometry y="-3" relative="1" as="geometry">
            <mxPoint as="offset" />
          </mxGeometry>
        </mxCell>
        <mxCell id="fkfLH0ix_5CJs-zv6ElO-14" value="USER" style="rounded=0;whiteSpace=wrap;html=1;" parent="1" vertex="1">
          <mxGeometry x="-730" y="1870" width="120" height="60" as="geometry" />
        </mxCell>
        <mxCell id="fkfLH0ix_5CJs-zv6ElO-19" value="" style="edgeStyle=orthogonalEdgeStyle;rounded=0;orthogonalLoop=1;jettySize=auto;html=1;" parent="1" source="fkfLH0ix_5CJs-zv6ElO-16" target="fkfLH0ix_5CJs-zv6ElO-18" edge="1">
          <mxGeometry relative="1" as="geometry" />
        </mxCell>
        <mxCell id="fkfLH0ix_5CJs-zv6ElO-29" value="1,N" style="edgeLabel;html=1;align=center;verticalAlign=middle;resizable=0;points=[];" parent="fkfLH0ix_5CJs-zv6ElO-19" vertex="1" connectable="0">
          <mxGeometry relative="1" as="geometry">
            <mxPoint as="offset" />
          </mxGeometry>
        </mxCell>
        <mxCell id="fkfLH0ix_5CJs-zv6ElO-16" value="create" style="rhombus;whiteSpace=wrap;html=1;rounded=0;" parent="1" vertex="1">
          <mxGeometry x="-495" y="1750" width="80" height="80" as="geometry" />
        </mxCell>
        <mxCell id="fkfLH0ix_5CJs-zv6ElO-18" value="RESERVATIONS" style="whiteSpace=wrap;html=1;rounded=0;" parent="1" vertex="1">
          <mxGeometry x="-315" y="1760" width="120" height="60" as="geometry" />
        </mxCell>
        <mxCell id="fkfLH0ix_5CJs-zv6ElO-23" value="" style="edgeStyle=orthogonalEdgeStyle;rounded=0;orthogonalLoop=1;jettySize=auto;html=1;" parent="1" source="fkfLH0ix_5CJs-zv6ElO-20" target="fkfLH0ix_5CJs-zv6ElO-22" edge="1">
          <mxGeometry relative="1" as="geometry" />
        </mxCell>
        <mxCell id="fkfLH0ix_5CJs-zv6ElO-26" value="1,N" style="edgeLabel;html=1;align=center;verticalAlign=middle;resizable=0;points=[];" parent="fkfLH0ix_5CJs-zv6ElO-23" vertex="1" connectable="0">
          <mxGeometry x="-0.0667" y="1" relative="1" as="geometry">
            <mxPoint as="offset" />
          </mxGeometry>
        </mxCell>
        <mxCell id="fkfLH0ix_5CJs-zv6ElO-20" value="adds to" style="rhombus;whiteSpace=wrap;html=1;rounded=0;" parent="1" vertex="1">
          <mxGeometry x="-495" y="1860" width="80" height="80" as="geometry" />
        </mxCell>
        <mxCell id="fkfLH0ix_5CJs-zv6ElO-22" value="FAVORITES" style="whiteSpace=wrap;html=1;rounded=0;" parent="1" vertex="1">
          <mxGeometry x="-315" y="1870" width="120" height="60" as="geometry" />
        </mxCell>
        <mxCell id="fkfLH0ix_5CJs-zv6ElO-32" value="" style="edgeStyle=orthogonalEdgeStyle;rounded=0;orthogonalLoop=1;jettySize=auto;html=1;" parent="1" source="fkfLH0ix_5CJs-zv6ElO-30" target="fkfLH0ix_5CJs-zv6ElO-31" edge="1">
          <mxGeometry relative="1" as="geometry" />
        </mxCell>
        <mxCell id="fkfLH0ix_5CJs-zv6ElO-36" value="1,1" style="edgeLabel;html=1;align=center;verticalAlign=middle;resizable=0;points=[];" parent="fkfLH0ix_5CJs-zv6ElO-32" vertex="1" connectable="0">
          <mxGeometry x="-0.02" y="-2" relative="1" as="geometry">
            <mxPoint as="offset" />
          </mxGeometry>
        </mxCell>
        <mxCell id="fkfLH0ix_5CJs-zv6ElO-30" value="TOUR_PACKAGES" style="rounded=0;whiteSpace=wrap;html=1;" parent="1" vertex="1">
          <mxGeometry x="-730" y="1970" width="120" height="60" as="geometry" />
        </mxCell>
        <mxCell id="fkfLH0ix_5CJs-zv6ElO-34" value="" style="edgeStyle=orthogonalEdgeStyle;rounded=0;orthogonalLoop=1;jettySize=auto;html=1;" parent="1" source="fkfLH0ix_5CJs-zv6ElO-31" target="fkfLH0ix_5CJs-zv6ElO-33" edge="1">
          <mxGeometry relative="1" as="geometry" />
        </mxCell>
        <mxCell id="fkfLH0ix_5CJs-zv6ElO-35" value="1,N" style="edgeLabel;html=1;align=center;verticalAlign=middle;resizable=0;points=[];" parent="fkfLH0ix_5CJs-zv6ElO-34" vertex="1" connectable="0">
          <mxGeometry x="-0.4" relative="1" as="geometry">
            <mxPoint as="offset" />
          </mxGeometry>
        </mxCell>
        <mxCell id="fkfLH0ix_5CJs-zv6ElO-31" value="booked" style="rhombus;whiteSpace=wrap;html=1;rounded=0;" parent="1" vertex="1">
          <mxGeometry x="-500" y="1960" width="80" height="80" as="geometry" />
        </mxCell>
        <mxCell id="fkfLH0ix_5CJs-zv6ElO-33" value="RESERVATIONS" style="whiteSpace=wrap;html=1;rounded=0;" parent="1" vertex="1">
          <mxGeometry x="-315" y="1970" width="120" height="60" as="geometry" />
        </mxCell>
        <mxCell id="fkfLH0ix_5CJs-zv6ElO-39" value="" style="edgeStyle=orthogonalEdgeStyle;rounded=0;orthogonalLoop=1;jettySize=auto;html=1;" parent="1" source="fkfLH0ix_5CJs-zv6ElO-37" target="fkfLH0ix_5CJs-zv6ElO-38" edge="1">
          <mxGeometry relative="1" as="geometry" />
        </mxCell>
        <mxCell id="fkfLH0ix_5CJs-zv6ElO-53" value="1,1" style="edgeLabel;html=1;align=center;verticalAlign=middle;resizable=0;points=[];" parent="fkfLH0ix_5CJs-zv6ElO-39" vertex="1" connectable="0">
          <mxGeometry x="-0.08" y="1" relative="1" as="geometry">
            <mxPoint as="offset" />
          </mxGeometry>
        </mxCell>
        <mxCell id="fkfLH0ix_5CJs-zv6ElO-37" value="ADMIN" style="rounded=0;whiteSpace=wrap;html=1;" parent="1" vertex="1">
          <mxGeometry x="-730" y="2070" width="120" height="60" as="geometry" />
        </mxCell>
        <mxCell id="fkfLH0ix_5CJs-zv6ElO-41" value="" style="edgeStyle=orthogonalEdgeStyle;rounded=0;orthogonalLoop=1;jettySize=auto;html=1;" parent="1" source="fkfLH0ix_5CJs-zv6ElO-38" target="fkfLH0ix_5CJs-zv6ElO-40" edge="1">
          <mxGeometry relative="1" as="geometry" />
        </mxCell>
        <mxCell id="fkfLH0ix_5CJs-zv6ElO-52" value="1,N" style="edgeLabel;html=1;align=center;verticalAlign=middle;resizable=0;points=[];" parent="fkfLH0ix_5CJs-zv6ElO-41" vertex="1" connectable="0">
          <mxGeometry x="-0.1333" y="-1" relative="1" as="geometry">
            <mxPoint as="offset" />
          </mxGeometry>
        </mxCell>
        <mxCell id="fkfLH0ix_5CJs-zv6ElO-38" value="manages" style="rhombus;whiteSpace=wrap;html=1;rounded=0;" parent="1" vertex="1">
          <mxGeometry x="-495" y="2060" width="80" height="80" as="geometry" />
        </mxCell>
        <mxCell id="fkfLH0ix_5CJs-zv6ElO-40" value="USER" style="whiteSpace=wrap;html=1;rounded=0;" parent="1" vertex="1">
          <mxGeometry x="-315" y="2070" width="120" height="60" as="geometry" />
        </mxCell>
        <mxCell id="fkfLH0ix_5CJs-zv6ElO-42" value="" style="edgeStyle=orthogonalEdgeStyle;rounded=0;orthogonalLoop=1;jettySize=auto;html=1;" parent="1" source="fkfLH0ix_5CJs-zv6ElO-43" target="fkfLH0ix_5CJs-zv6ElO-45" edge="1">
          <mxGeometry relative="1" as="geometry" />
        </mxCell>
        <mxCell id="fkfLH0ix_5CJs-zv6ElO-55" value="1,1" style="edgeLabel;html=1;align=center;verticalAlign=middle;resizable=0;points=[];" parent="fkfLH0ix_5CJs-zv6ElO-42" vertex="1" connectable="0">
          <mxGeometry x="-0.04" y="-2" relative="1" as="geometry">
            <mxPoint as="offset" />
          </mxGeometry>
        </mxCell>
        <mxCell id="fkfLH0ix_5CJs-zv6ElO-43" value="ADMIN" style="rounded=0;whiteSpace=wrap;html=1;" parent="1" vertex="1">
          <mxGeometry x="-730" y="2170" width="120" height="60" as="geometry" />
        </mxCell>
        <mxCell id="fkfLH0ix_5CJs-zv6ElO-44" value="" style="edgeStyle=orthogonalEdgeStyle;rounded=0;orthogonalLoop=1;jettySize=auto;html=1;" parent="1" source="fkfLH0ix_5CJs-zv6ElO-45" target="fkfLH0ix_5CJs-zv6ElO-46" edge="1">
          <mxGeometry relative="1" as="geometry" />
        </mxCell>
        <mxCell id="fkfLH0ix_5CJs-zv6ElO-54" value="1,N" style="edgeLabel;html=1;align=center;verticalAlign=middle;resizable=0;points=[];" parent="fkfLH0ix_5CJs-zv6ElO-44" vertex="1" connectable="0">
          <mxGeometry x="-0.0667" y="-1" relative="1" as="geometry">
            <mxPoint as="offset" />
          </mxGeometry>
        </mxCell>
        <mxCell id="fkfLH0ix_5CJs-zv6ElO-45" value="manages" style="rhombus;whiteSpace=wrap;html=1;rounded=0;" parent="1" vertex="1">
          <mxGeometry x="-495" y="2160" width="80" height="80" as="geometry" />
        </mxCell>
        <mxCell id="fkfLH0ix_5CJs-zv6ElO-46" value="TOUR_PACKAGES" style="whiteSpace=wrap;html=1;rounded=0;" parent="1" vertex="1">
          <mxGeometry x="-315" y="2170" width="120" height="60" as="geometry" />
        </mxCell>
        <mxCell id="fkfLH0ix_5CJs-zv6ElO-47" value="" style="edgeStyle=orthogonalEdgeStyle;rounded=0;orthogonalLoop=1;jettySize=auto;html=1;" parent="1" source="fkfLH0ix_5CJs-zv6ElO-48" target="fkfLH0ix_5CJs-zv6ElO-50" edge="1">
          <mxGeometry relative="1" as="geometry" />
        </mxCell>
        <mxCell id="fkfLH0ix_5CJs-zv6ElO-56" value="1,1" style="edgeLabel;html=1;align=center;verticalAlign=middle;resizable=0;points=[];" parent="fkfLH0ix_5CJs-zv6ElO-47" vertex="1" connectable="0">
          <mxGeometry x="0.32" y="-1" relative="1" as="geometry">
            <mxPoint as="offset" />
          </mxGeometry>
        </mxCell>
        <mxCell id="fkfLH0ix_5CJs-zv6ElO-48" value="ADMIN" style="rounded=0;whiteSpace=wrap;html=1;" parent="1" vertex="1">
          <mxGeometry x="-730" y="2270" width="120" height="60" as="geometry" />
        </mxCell>
        <mxCell id="fkfLH0ix_5CJs-zv6ElO-49" value="" style="edgeStyle=orthogonalEdgeStyle;rounded=0;orthogonalLoop=1;jettySize=auto;html=1;" parent="1" source="fkfLH0ix_5CJs-zv6ElO-50" target="fkfLH0ix_5CJs-zv6ElO-51" edge="1">
          <mxGeometry relative="1" as="geometry" />
        </mxCell>
        <mxCell id="fkfLH0ix_5CJs-zv6ElO-57" value="1,N" style="edgeLabel;html=1;align=center;verticalAlign=middle;resizable=0;points=[];" parent="fkfLH0ix_5CJs-zv6ElO-49" vertex="1" connectable="0">
          <mxGeometry x="-0.2667" y="1" relative="1" as="geometry">
            <mxPoint as="offset" />
          </mxGeometry>
        </mxCell>
        <mxCell id="fkfLH0ix_5CJs-zv6ElO-50" value="manages" style="rhombus;whiteSpace=wrap;html=1;rounded=0;" parent="1" vertex="1">
          <mxGeometry x="-495" y="2260" width="80" height="80" as="geometry" />
        </mxCell>
        <mxCell id="fkfLH0ix_5CJs-zv6ElO-51" value="RESERVATIONS" style="whiteSpace=wrap;html=1;rounded=0;" parent="1" vertex="1">
          <mxGeometry x="-315" y="2270" width="120" height="60" as="geometry" />
        </mxCell>
        <mxCell id="fkfLH0ix_5CJs-zv6ElO-61" value="" style="edgeStyle=orthogonalEdgeStyle;rounded=0;orthogonalLoop=1;jettySize=auto;html=1;" parent="1" source="fkfLH0ix_5CJs-zv6ElO-58" target="fkfLH0ix_5CJs-zv6ElO-60" edge="1">
          <mxGeometry relative="1" as="geometry" />
        </mxCell>
        <mxCell id="fkfLH0ix_5CJs-zv6ElO-65" value="1,N" style="edgeLabel;html=1;align=center;verticalAlign=middle;resizable=0;points=[];" parent="fkfLH0ix_5CJs-zv6ElO-61" vertex="1" connectable="0">
          <mxGeometry x="0.1" y="-3" relative="1" as="geometry">
            <mxPoint as="offset" />
          </mxGeometry>
        </mxCell>
        <mxCell id="fkfLH0ix_5CJs-zv6ElO-58" value="TOUR_PACKAGES" style="rounded=0;whiteSpace=wrap;html=1;" parent="1" vertex="1">
          <mxGeometry x="-730" y="2370" width="120" height="60" as="geometry" />
        </mxCell>
        <mxCell id="fkfLH0ix_5CJs-zv6ElO-63" value="" style="edgeStyle=orthogonalEdgeStyle;rounded=0;orthogonalLoop=1;jettySize=auto;html=1;" parent="1" source="fkfLH0ix_5CJs-zv6ElO-60" target="fkfLH0ix_5CJs-zv6ElO-62" edge="1">
          <mxGeometry relative="1" as="geometry" />
        </mxCell>
        <mxCell id="fkfLH0ix_5CJs-zv6ElO-64" value="1,N" style="edgeLabel;html=1;align=center;verticalAlign=middle;resizable=0;points=[];" parent="fkfLH0ix_5CJs-zv6ElO-63" vertex="1" connectable="0">
          <mxGeometry x="-0.1704" y="2" relative="1" as="geometry">
            <mxPoint as="offset" />
          </mxGeometry>
        </mxCell>
        <mxCell id="fkfLH0ix_5CJs-zv6ElO-60" value="contain" style="rhombus;whiteSpace=wrap;html=1;rounded=0;" parent="1" vertex="1">
          <mxGeometry x="-495" y="2360" width="95" height="80" as="geometry" />
        </mxCell>
        <mxCell id="fkfLH0ix_5CJs-zv6ElO-62" value="DESTINATIONS" style="whiteSpace=wrap;html=1;rounded=0;" parent="1" vertex="1">
          <mxGeometry x="-315" y="2370" width="120" height="60" as="geometry" />
        </mxCell>
        <mxCell id="fkfLH0ix_5CJs-zv6ElO-68" value="" style="edgeStyle=orthogonalEdgeStyle;rounded=0;orthogonalLoop=1;jettySize=auto;html=1;" parent="1" source="fkfLH0ix_5CJs-zv6ElO-66" edge="1">
          <mxGeometry relative="1" as="geometry">
            <mxPoint x="-480" y="2530" as="targetPoint" />
          </mxGeometry>
        </mxCell>
        <mxCell id="fkfLH0ix_5CJs-zv6ElO-72" value="1,1" style="edgeLabel;html=1;align=center;verticalAlign=middle;resizable=0;points=[];" parent="fkfLH0ix_5CJs-zv6ElO-68" vertex="1" connectable="0">
          <mxGeometry y="-2" relative="1" as="geometry">
            <mxPoint as="offset" />
          </mxGeometry>
        </mxCell>
        <mxCell id="fkfLH0ix_5CJs-zv6ElO-66" value="RESERVATIONS" style="rounded=0;whiteSpace=wrap;html=1;" parent="1" vertex="1">
          <mxGeometry x="-730" y="2500" width="120" height="60" as="geometry" />
        </mxCell>
        <mxCell id="fkfLH0ix_5CJs-zv6ElO-70" value="" style="edgeStyle=orthogonalEdgeStyle;rounded=0;orthogonalLoop=1;jettySize=auto;html=1;" parent="1" target="fkfLH0ix_5CJs-zv6ElO-69" edge="1">
          <mxGeometry relative="1" as="geometry">
            <mxPoint x="-400" y="2530" as="sourcePoint" />
          </mxGeometry>
        </mxCell>
        <mxCell id="fkfLH0ix_5CJs-zv6ElO-71" value="1,1" style="edgeLabel;html=1;align=center;verticalAlign=middle;resizable=0;points=[];" parent="fkfLH0ix_5CJs-zv6ElO-70" vertex="1" connectable="0">
          <mxGeometry x="0.0333" y="-1" relative="1" as="geometry">
            <mxPoint as="offset" />
          </mxGeometry>
        </mxCell>
        <mxCell id="fkfLH0ix_5CJs-zv6ElO-67" value="has" style="rhombus;whiteSpace=wrap;html=1;rounded=0;" parent="1" vertex="1">
          <mxGeometry x="-480" y="2490" width="80" height="80" as="geometry" />
        </mxCell>
        <mxCell id="fkfLH0ix_5CJs-zv6ElO-69" value="PAYMENT" style="whiteSpace=wrap;html=1;rounded=0;" parent="1" vertex="1">
          <mxGeometry x="-315" y="2500" width="120" height="60" as="geometry" />
        </mxCell>
        <mxCell id="bu7viNZD_RdTUbAbug_B-1" value="" style="edgeStyle=orthogonalEdgeStyle;rounded=0;orthogonalLoop=1;jettySize=auto;html=1;" parent="1" source="bu7viNZD_RdTUbAbug_B-3" target="bu7viNZD_RdTUbAbug_B-6" edge="1">
          <mxGeometry relative="1" as="geometry" />
        </mxCell>
        <mxCell id="bu7viNZD_RdTUbAbug_B-2" value="1,1" style="edgeLabel;html=1;align=center;verticalAlign=middle;resizable=0;points=[];" parent="bu7viNZD_RdTUbAbug_B-1" vertex="1" connectable="0">
          <mxGeometry x="-0.08" y="1" relative="1" as="geometry">
            <mxPoint as="offset" />
          </mxGeometry>
        </mxCell>
        <mxCell id="bu7viNZD_RdTUbAbug_B-12" value="" style="rounded=0;orthogonalLoop=1;jettySize=auto;html=1;" parent="1" source="bu7viNZD_RdTUbAbug_B-3" target="bu7viNZD_RdTUbAbug_B-10" edge="1">
          <mxGeometry relative="1" as="geometry" />
        </mxCell>
        <mxCell id="bu7viNZD_RdTUbAbug_B-22" value="1,1" style="edgeLabel;html=1;align=center;verticalAlign=middle;resizable=0;points=[];" parent="bu7viNZD_RdTUbAbug_B-12" vertex="1" connectable="0">
          <mxGeometry x="0.0286" relative="1" as="geometry">
            <mxPoint as="offset" />
          </mxGeometry>
        </mxCell>
        <mxCell id="bu7viNZD_RdTUbAbug_B-3" value="ADMIN" style="rounded=0;whiteSpace=wrap;html=1;" parent="1" vertex="1">
          <mxGeometry x="-760" y="2700" width="120" height="60" as="geometry" />
        </mxCell>
        <mxCell id="bu7viNZD_RdTUbAbug_B-4" value="" style="edgeStyle=orthogonalEdgeStyle;rounded=0;orthogonalLoop=1;jettySize=auto;html=1;" parent="1" source="bu7viNZD_RdTUbAbug_B-6" target="bu7viNZD_RdTUbAbug_B-7" edge="1">
          <mxGeometry relative="1" as="geometry" />
        </mxCell>
        <mxCell id="bu7viNZD_RdTUbAbug_B-5" value="1,N" style="edgeLabel;html=1;align=center;verticalAlign=middle;resizable=0;points=[];" parent="bu7viNZD_RdTUbAbug_B-4" vertex="1" connectable="0">
          <mxGeometry x="-0.1333" y="-1" relative="1" as="geometry">
            <mxPoint as="offset" />
          </mxGeometry>
        </mxCell>
        <mxCell id="bu7viNZD_RdTUbAbug_B-6" value="manages" style="rhombus;whiteSpace=wrap;html=1;rounded=0;" parent="1" vertex="1">
          <mxGeometry x="-465" y="2690" width="80" height="80" as="geometry" />
        </mxCell>
        <mxCell id="bu7viNZD_RdTUbAbug_B-21" style="rounded=0;orthogonalLoop=1;jettySize=auto;html=1;exitX=0.5;exitY=1;exitDx=0;exitDy=0;entryX=0.5;entryY=0;entryDx=0;entryDy=0;" parent="1" source="bu7viNZD_RdTUbAbug_B-7" target="bu7viNZD_RdTUbAbug_B-20" edge="1">
          <mxGeometry relative="1" as="geometry" />
        </mxCell>
        <mxCell id="bu7viNZD_RdTUbAbug_B-67" value="1,N" style="edgeLabel;html=1;align=center;verticalAlign=middle;resizable=0;points=[];" parent="bu7viNZD_RdTUbAbug_B-21" vertex="1" connectable="0">
          <mxGeometry x="-0.3143" y="1" relative="1" as="geometry">
            <mxPoint as="offset" />
          </mxGeometry>
        </mxCell>
        <mxCell id="bu7viNZD_RdTUbAbug_B-7" value="USER" style="whiteSpace=wrap;html=1;rounded=0;" parent="1" vertex="1">
          <mxGeometry x="-285" y="2700" width="120" height="60" as="geometry" />
        </mxCell>
        <mxCell id="bu7viNZD_RdTUbAbug_B-8" value="" style="edgeStyle=orthogonalEdgeStyle;rounded=0;orthogonalLoop=1;jettySize=auto;html=1;strokeColor=#FF0000;" parent="1" source="bu7viNZD_RdTUbAbug_B-10" target="bu7viNZD_RdTUbAbug_B-11" edge="1">
          <mxGeometry relative="1" as="geometry" />
        </mxCell>
        <mxCell id="bu7viNZD_RdTUbAbug_B-9" value="1,N" style="edgeLabel;html=1;align=center;verticalAlign=middle;resizable=0;points=[];" parent="bu7viNZD_RdTUbAbug_B-8" vertex="1" connectable="0">
          <mxGeometry x="-0.0667" y="-1" relative="1" as="geometry">
            <mxPoint as="offset" />
          </mxGeometry>
        </mxCell>
        <mxCell id="bu7viNZD_RdTUbAbug_B-10" value="manages" style="rhombus;whiteSpace=wrap;html=1;rounded=0;" parent="1" vertex="1">
          <mxGeometry x="-740" y="2830" width="80" height="80" as="geometry" />
        </mxCell>
        <mxCell id="bu7viNZD_RdTUbAbug_B-11" value="TOUR_PACKAGES" style="whiteSpace=wrap;html=1;rounded=0;" parent="1" vertex="1">
          <mxGeometry x="-760" y="3000" width="120" height="60" as="geometry" />
        </mxCell>
        <mxCell id="bu7viNZD_RdTUbAbug_B-14" value="RESERVATIONS" style="whiteSpace=wrap;html=1;rounded=0;" parent="1" vertex="1">
          <mxGeometry x="-477" y="2840" width="120" height="60" as="geometry" />
        </mxCell>
        <mxCell id="bu7viNZD_RdTUbAbug_B-18" value="" style="edgeStyle=orthogonalEdgeStyle;rounded=0;orthogonalLoop=1;jettySize=auto;html=1;entryX=1;entryY=0.5;entryDx=0;entryDy=0;" parent="1" source="bu7viNZD_RdTUbAbug_B-20" target="bu7viNZD_RdTUbAbug_B-14" edge="1">
          <mxGeometry relative="1" as="geometry">
            <mxPoint x="-70" y="2850" as="targetPoint" />
          </mxGeometry>
        </mxCell>
        <mxCell id="bu7viNZD_RdTUbAbug_B-19" value="1,N" style="edgeLabel;html=1;align=center;verticalAlign=middle;resizable=0;points=[];" parent="bu7viNZD_RdTUbAbug_B-18" vertex="1" connectable="0">
          <mxGeometry relative="1" as="geometry">
            <mxPoint as="offset" />
          </mxGeometry>
        </mxCell>
        <mxCell id="bu7viNZD_RdTUbAbug_B-20" value="create" style="rhombus;whiteSpace=wrap;html=1;rounded=0;" parent="1" vertex="1">
          <mxGeometry x="-265" y="2830" width="80" height="80" as="geometry" />
        </mxCell>
        <mxCell id="bu7viNZD_RdTUbAbug_B-26" value="" style="rounded=0;orthogonalLoop=1;jettySize=auto;html=1;exitX=1;exitY=0.5;exitDx=0;exitDy=0;" parent="1" source="bu7viNZD_RdTUbAbug_B-11" target="bu7viNZD_RdTUbAbug_B-30" edge="1">
          <mxGeometry relative="1" as="geometry">
            <mxPoint x="-585" y="3030" as="sourcePoint" />
          </mxGeometry>
        </mxCell>
        <mxCell id="bu7viNZD_RdTUbAbug_B-27" value="1,1" style="edgeLabel;html=1;align=center;verticalAlign=middle;resizable=0;points=[];" parent="bu7viNZD_RdTUbAbug_B-26" vertex="1" connectable="0">
          <mxGeometry x="-0.02" y="-2" relative="1" as="geometry">
            <mxPoint as="offset" />
          </mxGeometry>
        </mxCell>
        <mxCell id="bu7viNZD_RdTUbAbug_B-28" value="" style="rounded=0;orthogonalLoop=1;jettySize=auto;html=1;" parent="1" source="bu7viNZD_RdTUbAbug_B-30" target="bu7viNZD_RdTUbAbug_B-14" edge="1">
          <mxGeometry relative="1" as="geometry">
            <mxPoint x="-290" y="3030" as="targetPoint" />
          </mxGeometry>
        </mxCell>
        <mxCell id="bu7viNZD_RdTUbAbug_B-29" value="1,N" style="edgeLabel;html=1;align=center;verticalAlign=middle;resizable=0;points=[];" parent="bu7viNZD_RdTUbAbug_B-28" vertex="1" connectable="0">
          <mxGeometry x="-0.4" relative="1" as="geometry">
            <mxPoint as="offset" />
          </mxGeometry>
        </mxCell>
        <mxCell id="bu7viNZD_RdTUbAbug_B-30" value="booked" style="rhombus;whiteSpace=wrap;html=1;rounded=0;" parent="1" vertex="1">
          <mxGeometry x="-457" y="2990" width="80" height="80" as="geometry" />
        </mxCell>
        <mxCell id="bu7viNZD_RdTUbAbug_B-31" value="" style="rounded=0;orthogonalLoop=1;jettySize=auto;html=1;exitX=0.5;exitY=1;exitDx=0;exitDy=0;" parent="1" source="bu7viNZD_RdTUbAbug_B-11" target="bu7viNZD_RdTUbAbug_B-35" edge="1">
          <mxGeometry relative="1" as="geometry">
            <mxPoint x="-765.5" y="3090.0000000000005" as="sourcePoint" />
          </mxGeometry>
        </mxCell>
        <mxCell id="bu7viNZD_RdTUbAbug_B-32" value="1,N" style="edgeLabel;html=1;align=center;verticalAlign=middle;resizable=0;points=[];" parent="bu7viNZD_RdTUbAbug_B-31" vertex="1" connectable="0">
          <mxGeometry x="0.1" y="-3" relative="1" as="geometry">
            <mxPoint as="offset" />
          </mxGeometry>
        </mxCell>
        <mxCell id="bu7viNZD_RdTUbAbug_B-33" value="" style="rounded=0;orthogonalLoop=1;jettySize=auto;html=1;" parent="1" source="bu7viNZD_RdTUbAbug_B-35" target="bu7viNZD_RdTUbAbug_B-36" edge="1">
          <mxGeometry relative="1" as="geometry" />
        </mxCell>
        <mxCell id="bu7viNZD_RdTUbAbug_B-34" value="1,N" style="edgeLabel;html=1;align=center;verticalAlign=middle;resizable=0;points=[];" parent="bu7viNZD_RdTUbAbug_B-33" vertex="1" connectable="0">
          <mxGeometry x="-0.1704" y="2" relative="1" as="geometry">
            <mxPoint as="offset" />
          </mxGeometry>
        </mxCell>
        <mxCell id="bu7viNZD_RdTUbAbug_B-35" value="contain" style="rhombus;whiteSpace=wrap;html=1;rounded=0;" parent="1" vertex="1">
          <mxGeometry x="-747.5" y="3184.98" width="95" height="80" as="geometry" />
        </mxCell>
        <mxCell id="bu7viNZD_RdTUbAbug_B-36" value="DESTINATIONS" style="whiteSpace=wrap;html=1;rounded=0;" parent="1" vertex="1">
          <mxGeometry x="-514.5" y="3194.98" width="120" height="60" as="geometry" />
        </mxCell>
        <mxCell id="bu7viNZD_RdTUbAbug_B-37" value="" style="rounded=0;orthogonalLoop=1;jettySize=auto;html=1;exitX=0.892;exitY=0.983;exitDx=0;exitDy=0;exitPerimeter=0;" parent="1" source="bu7viNZD_RdTUbAbug_B-14" edge="1">
          <mxGeometry relative="1" as="geometry">
            <mxPoint x="-236.48" y="3020" as="targetPoint" />
            <mxPoint x="-408.52" y="2933" as="sourcePoint" />
          </mxGeometry>
        </mxCell>
        <mxCell id="bu7viNZD_RdTUbAbug_B-38" value="1,1" style="edgeLabel;html=1;align=center;verticalAlign=middle;resizable=0;points=[];" parent="bu7viNZD_RdTUbAbug_B-37" vertex="1" connectable="0">
          <mxGeometry y="-2" relative="1" as="geometry">
            <mxPoint as="offset" />
          </mxGeometry>
        </mxCell>
        <mxCell id="bu7viNZD_RdTUbAbug_B-39" value="" style="rounded=0;orthogonalLoop=1;jettySize=auto;html=1;" parent="1" target="bu7viNZD_RdTUbAbug_B-42" edge="1">
          <mxGeometry relative="1" as="geometry">
            <mxPoint x="-156.48" y="3020" as="sourcePoint" />
          </mxGeometry>
        </mxCell>
        <mxCell id="bu7viNZD_RdTUbAbug_B-40" value="1,1" style="edgeLabel;html=1;align=center;verticalAlign=middle;resizable=0;points=[];" parent="bu7viNZD_RdTUbAbug_B-39" vertex="1" connectable="0">
          <mxGeometry x="0.0333" y="-1" relative="1" as="geometry">
            <mxPoint as="offset" />
          </mxGeometry>
        </mxCell>
        <mxCell id="bu7viNZD_RdTUbAbug_B-41" value="has" style="rhombus;whiteSpace=wrap;html=1;rounded=0;" parent="1" vertex="1">
          <mxGeometry x="-236.48" y="2980" width="80" height="80" as="geometry" />
        </mxCell>
        <mxCell id="bu7viNZD_RdTUbAbug_B-42" value="PAYMENT" style="whiteSpace=wrap;html=1;rounded=0;" parent="1" vertex="1">
          <mxGeometry x="-71.48" y="2990" width="120" height="60" as="geometry" />
        </mxCell>
        <mxCell id="bu7viNZD_RdTUbAbug_B-43" value="" style="edgeStyle=orthogonalEdgeStyle;rounded=0;orthogonalLoop=1;jettySize=auto;html=1;" parent="1" target="bu7viNZD_RdTUbAbug_B-47" edge="1">
          <mxGeometry relative="1" as="geometry">
            <mxPoint x="-160" y="2730" as="sourcePoint" />
          </mxGeometry>
        </mxCell>
        <mxCell id="bu7viNZD_RdTUbAbug_B-44" value="1,N" style="edgeLabel;html=1;align=center;verticalAlign=middle;resizable=0;points=[];" parent="bu7viNZD_RdTUbAbug_B-43" vertex="1" connectable="0">
          <mxGeometry y="-3" relative="1" as="geometry">
            <mxPoint as="offset" />
          </mxGeometry>
        </mxCell>
        <mxCell id="bu7viNZD_RdTUbAbug_B-45" value="" style="edgeStyle=orthogonalEdgeStyle;rounded=0;orthogonalLoop=1;jettySize=auto;html=1;" parent="1" source="bu7viNZD_RdTUbAbug_B-47" edge="1">
          <mxGeometry relative="1" as="geometry">
            <mxPoint x="125" y="2730" as="targetPoint" />
          </mxGeometry>
        </mxCell>
        <mxCell id="bu7viNZD_RdTUbAbug_B-46" value="1,N" style="edgeLabel;html=1;align=center;verticalAlign=middle;resizable=0;points=[];" parent="bu7viNZD_RdTUbAbug_B-45" vertex="1" connectable="0">
          <mxGeometry x="-0.0667" y="1" relative="1" as="geometry">
            <mxPoint as="offset" />
          </mxGeometry>
        </mxCell>
        <mxCell id="bu7viNZD_RdTUbAbug_B-47" value="adds to" style="rhombus;whiteSpace=wrap;html=1;rounded=0;" parent="1" vertex="1">
          <mxGeometry x="-55" y="2690" width="80" height="80" as="geometry" />
        </mxCell>
        <mxCell id="bu7viNZD_RdTUbAbug_B-48" value="FAVORITES" style="whiteSpace=wrap;html=1;rounded=0;" parent="1" vertex="1">
          <mxGeometry x="130" y="2700" width="120" height="60" as="geometry" />
        </mxCell>
        <mxCell id="bu7viNZD_RdTUbAbug_B-54" value="" style="edgeStyle=orthogonalEdgeStyle;rounded=0;orthogonalLoop=1;jettySize=auto;html=1;exitX=0.5;exitY=0;exitDx=0;exitDy=0;" parent="1" source="bu7viNZD_RdTUbAbug_B-7" target="bu7viNZD_RdTUbAbug_B-58" edge="1">
          <mxGeometry relative="1" as="geometry">
            <mxPoint x="-290" y="2600" as="sourcePoint" />
          </mxGeometry>
        </mxCell>
        <mxCell id="bu7viNZD_RdTUbAbug_B-55" value="1,N" style="edgeLabel;html=1;align=center;verticalAlign=middle;resizable=0;points=[];" parent="bu7viNZD_RdTUbAbug_B-54" vertex="1" connectable="0">
          <mxGeometry x="-0.04" y="1" relative="1" as="geometry">
            <mxPoint as="offset" />
          </mxGeometry>
        </mxCell>
        <mxCell id="bu7viNZD_RdTUbAbug_B-56" value="" style="edgeStyle=orthogonalEdgeStyle;rounded=0;orthogonalLoop=1;jettySize=auto;html=1;" parent="1" source="bu7viNZD_RdTUbAbug_B-58" target="bu7viNZD_RdTUbAbug_B-59" edge="1">
          <mxGeometry relative="1" as="geometry" />
        </mxCell>
        <mxCell id="bu7viNZD_RdTUbAbug_B-57" value="1,1" style="edgeLabel;html=1;align=center;verticalAlign=middle;resizable=0;points=[];" parent="bu7viNZD_RdTUbAbug_B-56" vertex="1" connectable="0">
          <mxGeometry x="-0.4667" y="-1" relative="1" as="geometry">
            <mxPoint x="1" as="offset" />
          </mxGeometry>
        </mxCell>
        <mxCell id="Snv7-qyraj3ZiOCzRbyC-8" value="1,N" style="edgeLabel;html=1;align=center;verticalAlign=middle;resizable=0;points=[];" vertex="1" connectable="0" parent="bu7viNZD_RdTUbAbug_B-56">
          <mxGeometry x="-0.4171" y="-2" relative="1" as="geometry">
            <mxPoint as="offset" />
          </mxGeometry>
        </mxCell>
        <mxCell id="bu7viNZD_RdTUbAbug_B-58" value="writes" style="rhombus;whiteSpace=wrap;html=1;rounded=0;" parent="1" vertex="1">
          <mxGeometry x="-175" y="2560" width="80" height="80" as="geometry" />
        </mxCell>
        <mxCell id="bu7viNZD_RdTUbAbug_B-59" value="REVIEWS (po turi)" style="whiteSpace=wrap;html=1;rounded=0;" parent="1" vertex="1">
          <mxGeometry x="5" y="2570" width="120" height="60" as="geometry" />
        </mxCell>
        <mxCell id="bu7viNZD_RdTUbAbug_B-60" value="" style="rounded=0;orthogonalLoop=1;jettySize=auto;html=1;exitX=0.75;exitY=1;exitDx=0;exitDy=0;" parent="1" source="bu7viNZD_RdTUbAbug_B-7" target="bu7viNZD_RdTUbAbug_B-64" edge="1">
          <mxGeometry relative="1" as="geometry">
            <mxPoint x="-150" y="2840" as="sourcePoint" />
          </mxGeometry>
        </mxCell>
        <mxCell id="bu7viNZD_RdTUbAbug_B-61" value="1,1" style="edgeLabel;html=1;align=center;verticalAlign=middle;resizable=0;points=[];" parent="bu7viNZD_RdTUbAbug_B-60" vertex="1" connectable="0">
          <mxGeometry x="-0.14" y="-1" relative="1" as="geometry">
            <mxPoint as="offset" />
          </mxGeometry>
        </mxCell>
        <mxCell id="bu7viNZD_RdTUbAbug_B-62" value="" style="edgeStyle=orthogonalEdgeStyle;rounded=0;orthogonalLoop=1;jettySize=auto;html=1;" parent="1" source="bu7viNZD_RdTUbAbug_B-64" target="bu7viNZD_RdTUbAbug_B-65" edge="1">
          <mxGeometry relative="1" as="geometry" />
        </mxCell>
        <mxCell id="bu7viNZD_RdTUbAbug_B-63" value="1,N" style="edgeLabel;html=1;align=center;verticalAlign=middle;resizable=0;points=[];" parent="bu7viNZD_RdTUbAbug_B-62" vertex="1" connectable="0">
          <mxGeometry x="-0.0667" y="-1" relative="1" as="geometry">
            <mxPoint as="offset" />
          </mxGeometry>
        </mxCell>
        <mxCell id="bu7viNZD_RdTUbAbug_B-64" value="creates" style="rhombus;whiteSpace=wrap;html=1;rounded=0;" parent="1" vertex="1">
          <mxGeometry x="-35" y="2800" width="80" height="80" as="geometry" />
        </mxCell>
        <mxCell id="bu7viNZD_RdTUbAbug_B-65" value="ACCOUNT" style="whiteSpace=wrap;html=1;rounded=0;" parent="1" vertex="1">
          <mxGeometry x="145" y="2810" width="120" height="60" as="geometry" />
        </mxCell>
        <mxCell id="bu7viNZD_RdTUbAbug_B-68" value="" style="rounded=0;orthogonalLoop=1;jettySize=auto;html=1;exitX=0.93;exitY=1.08;exitDx=0;exitDy=0;exitPerimeter=0;" parent="1" source="bu7viNZD_RdTUbAbug_B-3" target="bu7viNZD_RdTUbAbug_B-71" edge="1">
          <mxGeometry relative="1" as="geometry">
            <mxPoint x="-601.5" y="2750" as="sourcePoint" />
          </mxGeometry>
        </mxCell>
        <mxCell id="bu7viNZD_RdTUbAbug_B-69" value="1,1" style="edgeLabel;html=1;align=center;verticalAlign=middle;resizable=0;points=[];" parent="bu7viNZD_RdTUbAbug_B-68" vertex="1" connectable="0">
          <mxGeometry x="0.0286" relative="1" as="geometry">
            <mxPoint as="offset" />
          </mxGeometry>
        </mxCell>
        <mxCell id="bu7viNZD_RdTUbAbug_B-70" style="edgeStyle=orthogonalEdgeStyle;rounded=0;orthogonalLoop=1;jettySize=auto;html=1;exitX=1;exitY=0.5;exitDx=0;exitDy=0;entryX=0;entryY=0.5;entryDx=0;entryDy=0;strokeColor=#FF0000;" parent="1" source="bu7viNZD_RdTUbAbug_B-71" target="bu7viNZD_RdTUbAbug_B-14" edge="1">
          <mxGeometry relative="1" as="geometry">
            <mxPoint x="-438.5" y="2860" as="targetPoint" />
          </mxGeometry>
        </mxCell>
        <mxCell id="bu7viNZD_RdTUbAbug_B-71" value="manages" style="rhombus;whiteSpace=wrap;html=1;rounded=0;" parent="1" vertex="1">
          <mxGeometry x="-630" y="2830" width="80" height="80" as="geometry" />
        </mxCell>
        <mxCell id="bu7viNZD_RdTUbAbug_B-72" value="1,N" style="edgeLabel;html=1;align=center;verticalAlign=middle;resizable=0;points=[];" parent="1" vertex="1" connectable="0">
          <mxGeometry x="-514.5" y="2870" as="geometry" />
        </mxCell>
        <mxCell id="Snv7-qyraj3ZiOCzRbyC-4" value="PostDate" style="ellipse;whiteSpace=wrap;html=1;" vertex="1" parent="1">
          <mxGeometry x="1470" y="1280" width="120" height="80" as="geometry" />
        </mxCell>
        <mxCell id="Snv7-qyraj3ZiOCzRbyC-9" value="UserId" style="ellipse;whiteSpace=wrap;html=1;" vertex="1" parent="1">
          <mxGeometry x="940" y="10" width="120" height="80" as="geometry" />
        </mxCell>
      </root>
    </mxGraphModel>
  </diagram>
</mxfile>
